<svg height="512" viewBox="0 0 60 60" width="512" xmlns="http://www.w3.org/2000/svg"><g id="Page-1" fill="none" fill-rule="evenodd"><g id="017---AR-Book" fill-rule="nonzero"><g id="Icons" transform="translate(1 1)"><path id="Shape" d="m57.69 53.64c.0496158.3653154-.1085022.7278299-.41.94-.3317428.2499087-.7854644.2619544-1.13.03-3.99-2.64-14.09-7.52-27.15-.61-13.06-6.91-23.16-2.03-27.15.61-.34453564.2319544-.79825719.2199087-1.13-.03-.30149781-.2121701-.45961584-.5746846-.41-.94l5.55-41.56c.08181883-.6749403.50487338-1.2604176 1.12-1.55 2.87058584-1.28708599 5.9575007-2.02319645 9.1-2.17l-4.08 2.64v18l17 11 17-11v-18l-4.08-2.64c3.1424993.14680355 6.2294142.88291401 9.1 2.17.6151266.2895824 1.0381812.8750597 1.12 1.55z" fill="#dfe6e9"/><path id="Shape" d="m52.14 12.08c-.0818188-.6749403-.5048734-1.2604176-1.12-1.55-2.8705858-1.28708599-5.9575007-2.02319645-9.1-2.17l.709.459c1.8562673.36327895 3.6649827.93733052 5.391 1.711.6151266.2895824 1.0381812.8750597 1.12 1.55l5.55 41.56v.079c.551.311 1.042.613 1.461.891.3445356.2319544.7982572.2199087 1.13-.03.3014978-.2121701.4596158-.5746846.41-.94z" fill="#74b9ff"/><path id="Shape" d="m46 11-17 11-17-11 4.08-2.64 12.92-8.36 12.92 8.36z" fill="#dfe6e9"/><path id="Shape" d="m29 22v18l-17-11v-18z" fill="#0984e3"/><path id="Shape" d="m46 11v18l-17 11v-18z" fill="#dfe6e9"/><path id="Shape" d="m43 12.941v16.059l-14 9.059v1.941l17-11v-18z" fill="#74b9ff"/><path id="Shape" d="m57.28 54.58-2.28 3.42h-52l-2.28-3.42c.33174281.2499087.78546436.2619544 1.13.03 3.99-2.64 14.09-7.52 27.15-.61 13.06-6.91 23.16-2.03 27.15.61.3445356.2319544.7982572.2199087 1.13-.03z" fill="#0984e3"/><path id="Shape" d="m56.15 54.61c-4.5164491-2.9736643-9.871485-4.4114932-15.27-4.1 4.3766396.2779849 8.6054265 1.691027 12.27 4.1.3445356.2319544.7982572.2199087 1.13-.03l-2.28 3.42h3l2.28-3.42c-.3317428.2499087-.7854644.2619544-1.13.03z" fill="#74b9ff"/></g><g id="Icons_copy_2" fill="#fff" transform="translate(1 1)"><path id="Shape" d="m3.31 53.64 5.55-41.56c.08181883-.6749403.50487338-1.2604176 1.12-1.55 2.8705858-1.28708599 5.9575007-2.02319645 9.1-2.17l11.42-7.389-1.5-.971-12.92 8.36c-3.1424993.14680355-6.22941416.88291401-9.1 2.17-.61512662.2895824-1.03818117.8750597-1.12 1.55l-5.55 41.56c-.04961584.3653154.10850219.7278299.41.94l2.28 3.42h3l-2.28-3.42c-.30149781-.2121701-.45961584-.5746846-.41-.94z"/></g><g id="Icons_copy"><path id="Rectangle-path" d="m2.328 16.043h8v2h-8z" fill="#fff" transform="matrix(.132 -.991 .991 .132 -11.402 21.063)"/><g fill="#2d3436"><path id="Shape" d="m.323 54.509c-.0929013.6977211.19429424 1.3918724.753 1.82.02091856.0789434.05183542.1548913.092.226l2 3c.18552458.2780697.49772147.44505.832.445h52c.3342785.00005.6464754-.1669303.832-.445l2-3c.0401646-.0711087.0710814-.1470566.092-.226.5587058-.4281276.8459013-1.1222789.753-1.82l-5.542-41.563c-.1321615-1.0169383-.7770899-1.8948414-1.708-2.325-2.8942796-1.29712148-6.0014081-2.05390791-9.168-2.233l-12.716-8.227c-.3304646-.21368974-.7555354-.21368974-1.086 0l-12.716 8.227c-3.1661561.17912021-6.2728925.93555476-9.167 2.232-.93132452.430382-1.5765985 1.3086191-1.709 2.326-.07290157.5475903.31190968 1.0505984.8595 1.1235s1.0505984-.3119097 1.1235-.8595c.03915405-.3316109.24512-.6201896.546-.765 1.39909388-.6282795 2.8554966-1.1202214 4.349-1.469l-.286.185v.006c-.283768.1821734-.4558246.4957908-.457.833v18c.0002485.3390566.172283.6548923.457.839l17 11c.3304646.2136897.7555354.2136897 1.086 0l17-11c.284717-.1841077.4567515-.4999434.457-.839v-18c-.0020494-.3379853-.1757042-.6517693-.461-.833v-.006l-.286-.185c1.4939126.3484773 2.9506758.8404279 4.35 1.469.3003685.1452187.5058677.4336718.545.765l5.552 41.568c-3.789-2.508-13.786-7.5-26.7-1.4v-5.378c0-.5522847-.4477153-1-1-1s-1 .4477153-1 1v5.385c-12.915-6.1-22.914-1.115-26.694 1.389l-.793-.106.793.106 4.484-33.634c.05585536-.3582422-.08657311-.7186548-.37223567-.9419354-.28566255-.2232806-.66980446-.2744478-1.00395181-.1337251-.33414735.1407226-.56594929.4512881-.60581252.8116605zm29.677-52.318 15.16 9.809-15.16 9.809-15.16-9.809zm-16 11.647 15 9.706v15.618l-15-9.706zm32 15.618-15 9.706v-15.618l15-9.706zm-16.468 26.428v-.005c.2908499.1565894.6404885.1584632.933.005 12.6-6.673 22.377-1.9 26.063.517l-.811 1.216c-3.2711272-1.8406151-6.8935776-2.9708633-10.631-3.317-.542559-.0565839-1.0303628.3320951-1.0963784.8735874-.0660157.5414923.3141167 1.0359851.8543784 1.1114126 2.418872.2732851 4.7938126.849466 7.069 1.715h-15.5l.293-.293c.3789722-.3923789.3735524-1.0160848-.0121814-1.4018186s-1.0094397-.3911536-1.4018186-.0121814l-1.414 1.414c-.1880463.1867195-.4420009.2919651-.707.293h-6.343c-.2649991-.0010349-.5189537-.1062805-.707-.293l-1.414-1.414c-.3923789-.3789722-1.0160848-.3735524-1.4018186.0121814s-.3911536 1.0094397-.0121814 1.4018186l.293.293h-15.502c2.2761617-.8659268 4.6521019-1.4424417 7.072-1.716.5402617-.0754275.9203941-.5699203.8543784-1.1114126-.0660156-.5414923-.5538194-.9301713-1.0963784-.8735874-3.7365212.3571383-7.3582414 1.4859464-10.636 3.315l-.809-1.214c3.685-2.418 13.462-7.187 26.063-.516z"/><path id="Shape" d="m6.347 18.043c-.55228475.0027614-1.00223858-.4427153-1.005-.995s.44271525-1.0022386.995-1.005h.01c.55228475 0 1 .4477153 1 1s-.44771525 1-1 1z"/><path id="Shape" d="m17 44v-7c0-.5522847-.4477153-1-1-1s-1 .4477153-1 1v7c0 .5522847.4477153 1 1 1s1-.4477153 1-1z"/><path id="Shape" d="m23 47v-7c0-.5522847-.4477153-1-1-1s-1 .4477153-1 1v7c0 .5522847.4477153 1 1 1s1-.4477153 1-1z"/><path id="Shape" d="m44 45c.5522847 0 1-.4477153 1-1v-7c0-.5522847-.4477153-1-1-1s-1 .4477153-1 1v7c0 .5522847.4477153 1 1 1z"/><path id="Shape" d="m39 47v-7c0-.5522847-.4477153-1-1-1s-1 .4477153-1 1v7c0 .5522847.4477153 1 1 1s1-.4477153 1-1z"/></g></g></g></g></svg>