<?xml version="1.0" encoding="utf-8"?>
<!-- Generator: Adobe Illustrator 18.0.0, SVG Export Plug-In . SVG Version: 6.00 Build 0)  -->
<!DOCTYPE svg PUBLIC "-//W3C//DTD SVG 1.1//EN" "http://www.w3.org/Graphics/SVG/1.1/DTD/svg11.dtd">
<svg version="1.1" xmlns="http://www.w3.org/2000/svg" xmlns:xlink="http://www.w3.org/1999/xlink" x="0px" y="0px"
	 viewBox="0 0 200 200" enable-background="new 0 0 200 200" xml:space="preserve">
<g id="Layer_1" display="none">
	<title>Virtual Reality icons</title>
	<path display="inline" fill="none" stroke="#2D3436" stroke-width="8" stroke-miterlimit="10" d="M145,57h41c5.5,0,10,4.5,10,10
		v108c0,5.5-4.5,10-10,10H14c-5.5,0-10-4.5-10-10V67c0-5.5,4.5-10,10-10h41.5"/>
	
		<line display="inline" fill="none" stroke="#2D3436" stroke-width="8" stroke-miterlimit="10" x1="163" y1="57" x2="163" y2="185"/>
	<line display="inline" fill="none" stroke="#2D3436" stroke-width="8" stroke-miterlimit="10" x1="37" y1="57" x2="37" y2="185"/>
	
		<line display="inline" fill="none" stroke="#A29BFE" stroke-width="8" stroke-miterlimit="10" x1="100" y1="62.2" x2="100" y2="110.2"/>
	
		<line display="inline" fill="none" stroke="#A29BFE" stroke-width="7.94" stroke-miterlimit="10" x1="56" y1="35.8" x2="100" y2="62.8"/>
	
		<line display="inline" fill="none" stroke="#A29BFE" stroke-width="8" stroke-miterlimit="10" x1="144" y1="35.8" x2="100" y2="62.8"/>
	<polygon display="inline" fill="none" stroke="#A29BFE" stroke-width="8" stroke-miterlimit="10" points="144,35.8 144,84.6 
		100,111.9 56,84.9 56,35.8 99.5,8.7 	"/>
	
		<line display="inline" fill="none" stroke="#2D3436" stroke-width="8" stroke-miterlimit="10" x1="74" y1="131" x2="126" y2="131"/>
</g>
<g id="Layer_2">
	<path fill="#636E72" stroke="#2D3436" stroke-width="8" stroke-miterlimit="10" d="M145.1,123.2H54.9c-10.5,0-19.2-8.6-19.2-19.2
		V64.5c0-10.5,8.6-19.2,19.2-19.2h90.2c10.5,0,19.2,8.6,19.2,19.2V104C164.3,114.6,155.6,123.2,145.1,123.2z"/>
	<path fill="#636E72" stroke="#2D3436" stroke-width="8" stroke-miterlimit="10" d="M188.7,119.1H11.3c-3.8,0-6.9-3.1-6.9-6.9V97.9
		c0-3.8,3.1-6.9,6.9-6.9h177.4c3.8,0,6.9,3.1,6.9,6.9v14.3C195.6,116,192.5,119.1,188.7,119.1z"/>
	<path fill="#6C5CE7" d="M159.8,152.5H40.2c-12.8,0-23.3-10.5-23.3-23.3V80.9c0-12.8,10.5-23.3,23.3-23.3h119.6
		c12.8,0,23.3,10.5,23.3,23.3v48.2C183.1,142,172.6,152.5,159.8,152.5z"/>
	<path fill="#A29BFE" d="M157.8,59h-116c-4,0-7.5-0.1-10.9,1.5c-3.9,4.6-5.9,9.6-5.9,16v42C25,133,36.3,145,50.9,145h113.4
		c6.7,0,12.7-2.6,17.4-6.7c1.6-3.4,2.4-7.3,2.4-11.3V83.5C184,68.9,172.4,59,157.8,59z"/>
	<path fill="none" stroke="#2D3436" stroke-width="8" stroke-miterlimit="10" d="M184,85.5c0-14.6-11.8-26.5-26.5-26.5H42.5
		C27.8,59,16,70.8,16,85.5v43.1c0,14.6,11.8,26.5,26.5,26.5h115.1c14.6,0,26.5-11.8,26.5-26.5V85.5z"/>
	<g>
		<path fill="#2D3436" d="M100.9,84.7L82,128.1H74l-19-43.4h8.7l14.4,33.5l14.6-33.5H100.9z"/>
		<path fill="#2D3436" d="M133.8,128.1l-8.9-12.7c-0.4,0-0.9,0.1-1.7,0.1h-9.8v12.6h-8.1V84.7h17.9c3.8,0,7,0.6,9.8,1.9
			c2.8,1.2,4.9,3,6.4,5.3c1.5,2.3,2.2,5.1,2.2,8.2c0,3.3-0.8,6.1-2.4,8.4c-1.6,2.4-3.9,4.1-6.8,5.3l10,14.3H133.8z M130.9,93.8
			c-1.8-1.5-4.5-2.2-8-2.2h-9.4v17.3h9.4c3.5,0,6.2-0.8,8-2.3c1.8-1.5,2.7-3.6,2.7-6.4C133.7,97.4,132.7,95.3,130.9,93.8z"/>
	</g>
	<circle fill="#2D3436" cx="36.1" cy="74.4" r="7.6"/>
	<circle fill="#2D3436" cx="164.3" cy="74.4" r="7.6"/>
	<circle fill="#2D3436" cx="35.7" cy="135.3" r="7.6"/>
	<circle fill="#2D3436" cx="164.3" cy="135.3" r="7.6"/>
</g>
</svg>
